<svg width="180" height="20" viewBox="0 0 180 20" fill="none" xmlns="http://www.w3.org/2000/svg">
<path d="M6.66602 4.79167C6.32435 4.79167 6.04102 4.50833 6.04102 4.16667V1.66667C6.04102 1.325 6.32435 1.04167 6.66602 1.04167C7.00768 1.04167 7.29102 1.325 7.29102 1.66667V4.16667C7.29102 4.50833 7.00768 4.79167 6.66602 4.79167Z" fill="#717171"/>
<path d="M13.334 4.79167C12.9923 4.79167 12.709 4.50833 12.709 4.16667V1.66667C12.709 1.325 12.9923 1.04167 13.334 1.04167C13.6757 1.04167 13.959 1.325 13.959 1.66667V4.16667C13.959 4.50833 13.6757 4.79167 13.334 4.79167Z" fill="#717171"/>
<path d="M7.08333 12.0833C6.975 12.0833 6.86667 12.0583 6.76667 12.0167C6.65833 11.975 6.575 11.9167 6.49167 11.8417C6.34167 11.6833 6.25 11.475 6.25 11.25C6.25 11.1417 6.275 11.0333 6.31667 10.9333C6.35833 10.8333 6.41667 10.7417 6.49167 10.6583C6.575 10.5833 6.65833 10.525 6.76667 10.4833C7.06667 10.3583 7.44167 10.425 7.675 10.6583C7.825 10.8167 7.91667 11.0333 7.91667 11.25C7.91667 11.3 7.90833 11.3583 7.9 11.4167C7.89167 11.4667 7.875 11.5167 7.85 11.5667C7.83333 11.6167 7.80833 11.6667 7.775 11.7167C7.75 11.7583 7.70833 11.8 7.675 11.8417C7.51667 11.9917 7.3 12.0833 7.08333 12.0833Z" fill="#717171"/>
<path d="M9.99935 12.0833C9.89102 12.0833 9.78268 12.0583 9.68268 12.0167C9.57435 11.975 9.49102 11.9167 9.40768 11.8417C9.25768 11.6833 9.16602 11.475 9.16602 11.25C9.16602 11.1417 9.19102 11.0333 9.23268 10.9333C9.27435 10.8333 9.33268 10.7417 9.40768 10.6583C9.49102 10.5833 9.57435 10.525 9.68268 10.4833C9.98268 10.35 10.3577 10.425 10.591 10.6583C10.741 10.8167 10.8327 11.0333 10.8327 11.25C10.8327 11.3 10.8243 11.3583 10.816 11.4167C10.8077 11.4667 10.791 11.5167 10.766 11.5667C10.7493 11.6167 10.7243 11.6667 10.691 11.7167C10.666 11.7583 10.6243 11.8 10.591 11.8417C10.4327 11.9917 10.216 12.0833 9.99935 12.0833Z" fill="#717171"/>
<path d="M12.9173 12.0833C12.809 12.0833 12.7007 12.0583 12.6007 12.0167C12.4923 11.975 12.409 11.9167 12.3257 11.8417C12.2923 11.8 12.259 11.7583 12.2256 11.7167C12.1923 11.6667 12.1673 11.6167 12.1507 11.5667C12.1257 11.5167 12.109 11.4667 12.1007 11.4167C12.0923 11.3583 12.084 11.3 12.084 11.25C12.084 11.0333 12.1757 10.8167 12.3257 10.6583C12.409 10.5833 12.4923 10.525 12.6007 10.4833C12.909 10.35 13.2757 10.425 13.509 10.6583C13.659 10.8167 13.7507 11.0333 13.7507 11.25C13.7507 11.3 13.7423 11.3583 13.734 11.4167C13.7257 11.4667 13.709 11.5167 13.684 11.5667C13.6673 11.6167 13.6423 11.6667 13.609 11.7167C13.584 11.7583 13.5423 11.8 13.509 11.8417C13.3507 11.9917 13.134 12.0833 12.9173 12.0833Z" fill="#717171"/>
<path d="M7.08333 15C6.975 15 6.86667 14.975 6.76667 14.9333C6.66667 14.8917 6.575 14.8333 6.49167 14.7583C6.34167 14.6 6.25 14.3833 6.25 14.1667C6.25 14.0583 6.275 13.95 6.31667 13.85C6.35833 13.7417 6.41667 13.65 6.49167 13.575C6.8 13.2667 7.36667 13.2667 7.675 13.575C7.825 13.7333 7.91667 13.95 7.91667 14.1667C7.91667 14.3833 7.825 14.6 7.675 14.7583C7.51667 14.9083 7.3 15 7.08333 15Z" fill="#717171"/>
<path d="M9.99935 15C9.78268 15 9.56602 14.9083 9.40768 14.7583C9.25768 14.6 9.16602 14.3833 9.16602 14.1667C9.16602 14.0583 9.19102 13.95 9.23268 13.85C9.27435 13.7417 9.33268 13.65 9.40768 13.575C9.71602 13.2667 10.2827 13.2667 10.591 13.575C10.666 13.65 10.7243 13.7417 10.766 13.85C10.8077 13.95 10.8327 14.0583 10.8327 14.1667C10.8327 14.3833 10.741 14.6 10.591 14.7583C10.4327 14.9083 10.216 15 9.99935 15Z" fill="#717171"/>
<path d="M12.9173 15C12.7007 15 12.484 14.9084 12.3257 14.7584C12.2507 14.6834 12.1923 14.5917 12.1507 14.4834C12.109 14.3834 12.084 14.275 12.084 14.1667C12.084 14.0584 12.109 13.95 12.1507 13.85C12.1923 13.7417 12.2507 13.65 12.3257 13.575C12.5173 13.3834 12.809 13.2917 13.0757 13.35C13.134 13.3584 13.184 13.375 13.234 13.4C13.284 13.4167 13.334 13.4417 13.384 13.475C13.4257 13.5 13.4673 13.5417 13.509 13.575C13.659 13.7334 13.7507 13.95 13.7507 14.1667C13.7507 14.3834 13.659 14.6 13.509 14.7584C13.3507 14.9084 13.134 15 12.9173 15Z" fill="#717171"/>
<path d="M17.0827 8.19997H2.91602C2.57435 8.19997 2.29102 7.91664 2.29102 7.57497C2.29102 7.2333 2.57435 6.94997 2.91602 6.94997H17.0827C17.4243 6.94997 17.7077 7.2333 17.7077 7.57497C17.7077 7.91664 17.4243 8.19997 17.0827 8.19997Z" fill="#717171"/>
<path d="M13.3333 18.9583H6.66667C3.625 18.9583 1.875 17.2083 1.875 14.1667V7.08333C1.875 4.04167 3.625 2.29167 6.66667 2.29167H13.3333C16.375 2.29167 18.125 4.04167 18.125 7.08333V14.1667C18.125 17.2083 16.375 18.9583 13.3333 18.9583ZM6.66667 3.54167C4.28333 3.54167 3.125 4.7 3.125 7.08333V14.1667C3.125 16.55 4.28333 17.7083 6.66667 17.7083H13.3333C15.7167 17.7083 16.875 16.55 16.875 14.1667V7.08333C16.875 4.7 15.7167 3.54167 13.3333 3.54167H6.66667Z" fill="#717171"/>
<path d="M23.1719 17H22.3366L25.5114 8.27273H26.3636L29.5384 17H28.7031L25.9673 9.30824H25.9077L23.1719 17ZM23.7727 13.6548H28.1023V14.3707H23.7727V13.6548ZM35.0355 14.4986V10.4545H35.794V17H35.0355V15.9134H34.9759C34.8224 16.2486 34.5795 16.5284 34.2472 16.7528C33.9148 16.9744 33.5085 17.0852 33.0284 17.0852C32.6108 17.0852 32.2401 16.9943 31.9162 16.8125C31.5923 16.6278 31.3381 16.358 31.1534 16.0028C30.9688 15.6477 30.8764 15.2116 30.8764 14.6946V10.4545H31.6349V14.6477C31.6349 15.1591 31.7855 15.571 32.0866 15.8835C32.3878 16.1932 32.7741 16.348 33.2457 16.348C33.5412 16.348 33.8253 16.277 34.098 16.1349C34.3707 15.9929 34.5952 15.7855 34.7713 15.5128C34.9474 15.2372 35.0355 14.8991 35.0355 14.4986ZM40.2994 19.5909C39.8533 19.5909 39.4627 19.5327 39.1275 19.4162C38.7923 19.3026 38.5096 19.1463 38.2795 18.9474C38.0494 18.7486 37.8704 18.5256 37.7425 18.2784L38.3647 17.8693C38.4585 18.0341 38.5835 18.196 38.7397 18.3551C38.8988 18.5142 39.1048 18.6463 39.3576 18.7514C39.6133 18.8565 39.9272 18.9091 40.2994 18.9091C40.8789 18.9091 41.3462 18.7642 41.7013 18.4744C42.0593 18.1847 42.2383 17.7344 42.2383 17.1236V15.6491H42.1701C42.082 15.848 41.9556 16.0469 41.7908 16.2457C41.6261 16.4418 41.4102 16.6051 41.1431 16.7358C40.8789 16.8665 40.5508 16.9318 40.1587 16.9318C39.636 16.9318 39.1715 16.8026 38.7653 16.544C38.3619 16.2855 38.0437 15.9162 37.8107 15.4361C37.5806 14.9531 37.4656 14.3778 37.4656 13.7102C37.4656 13.0483 37.5778 12.4659 37.8022 11.9631C38.0295 11.4602 38.3462 11.0682 38.7525 10.7869C39.1587 10.5057 39.6317 10.3651 40.1715 10.3651C40.5721 10.3651 40.9045 10.4361 41.1687 10.5781C41.4329 10.7173 41.6445 10.8906 41.8036 11.098C41.9656 11.3054 42.092 11.5071 42.1829 11.7031H42.2596V10.4545H43.0011V17.1705C43.0011 17.7244 42.8832 18.1804 42.6474 18.5384C42.4116 18.8963 42.0906 19.1605 41.6843 19.331C41.2781 19.5043 40.8164 19.5909 40.2994 19.5909ZM40.2482 16.2372C40.6687 16.2372 41.0281 16.1364 41.3263 15.9347C41.6246 15.7301 41.8533 15.4375 42.0124 15.0568C42.1715 14.6761 42.2511 14.223 42.2511 13.6974C42.2511 13.1861 42.1729 12.733 42.0167 12.3381C41.8604 11.9403 41.6332 11.6278 41.3349 11.4006C41.0394 11.1705 40.6772 11.0554 40.2482 11.0554C39.8107 11.0554 39.4414 11.1733 39.1403 11.4091C38.8391 11.6449 38.6119 11.9631 38.4585 12.3636C38.305 12.7614 38.2283 13.206 38.2283 13.6974C38.2283 14.1974 38.3065 14.6392 38.4627 15.0227C38.619 15.4034 38.8477 15.7017 39.1488 15.9176C39.4499 16.1307 39.8164 16.2372 40.2482 16.2372ZM49.1683 14.4986V10.4545H49.9268V17H49.1683V15.9134H49.1087C48.9553 16.2486 48.7124 16.5284 48.38 16.7528C48.0476 16.9744 47.6413 17.0852 47.1612 17.0852C46.7436 17.0852 46.3729 16.9943 46.049 16.8125C45.7251 16.6278 45.4709 16.358 45.2862 16.0028C45.1016 15.6477 45.0092 15.2116 45.0092 14.6946V10.4545H45.7678V14.6477C45.7678 15.1591 45.9183 15.571 46.2195 15.8835C46.5206 16.1932 46.907 16.348 47.3786 16.348C47.674 16.348 47.9581 16.277 48.2308 16.1349C48.5036 15.9929 48.728 15.7855 48.9041 15.5128C49.0803 15.2372 49.1683 14.8991 49.1683 14.4986ZM56.3327 11.8906L55.6381 12.0866C55.57 11.8906 55.4734 11.7131 55.3484 11.554C55.2234 11.3949 55.06 11.2685 54.8583 11.1747C54.6594 11.081 54.4123 11.0341 54.1168 11.0341C53.6737 11.0341 53.31 11.1392 53.0259 11.3494C52.7418 11.5597 52.5998 11.831 52.5998 12.1634C52.5998 12.4446 52.6964 12.6733 52.8896 12.8494C53.0856 13.0227 53.3867 13.1605 53.793 13.2628L54.7816 13.5057C55.3299 13.6392 55.7404 13.8509 56.0131 14.1406C56.2887 14.4304 56.4265 14.794 56.4265 15.2315C56.4265 15.6009 56.3242 15.929 56.1197 16.2159C55.9151 16.5028 55.6296 16.7287 55.2631 16.8935C54.8995 17.0554 54.4776 17.1364 53.9975 17.1364C53.3583 17.1364 52.8313 16.9929 52.4165 16.706C52.0018 16.4162 51.7362 15.9986 51.6197 15.4531L52.3484 15.2741C52.4421 15.6634 52.6254 15.9574 52.8981 16.1562C53.1737 16.3551 53.5359 16.4545 53.9847 16.4545C54.4876 16.4545 54.8896 16.3423 55.1907 16.1179C55.4918 15.8906 55.6424 15.6065 55.6424 15.2656C55.6424 15.0014 55.5543 14.7798 55.3782 14.6009C55.2021 14.419 54.935 14.2855 54.5771 14.2003L53.5075 13.9446C52.9393 13.8082 52.5188 13.5923 52.2461 13.2969C51.9734 13.0014 51.837 12.6349 51.837 12.1974C51.837 11.8366 51.935 11.5199 52.131 11.2472C52.3271 10.9716 52.5969 10.7557 52.9407 10.5994C53.2844 10.4432 53.6765 10.3651 54.1168 10.3651C54.7163 10.3651 55.195 10.5014 55.5529 10.7741C55.9137 11.044 56.1737 11.4162 56.3327 11.8906ZM60.6655 10.4545V11.1151H57.5419V10.4545H60.6655ZM58.5178 8.88636H59.2805V15.2912C59.2805 15.5639 59.3274 15.7784 59.4212 15.9347C59.5149 16.0881 59.6371 16.1974 59.7876 16.2628C59.9382 16.3253 60.0987 16.3565 60.2692 16.3565C60.3686 16.3565 60.4538 16.3509 60.5249 16.3395C60.5959 16.3253 60.6584 16.3111 60.7124 16.2969L60.8743 16.983C60.8004 17.0114 60.7095 17.0369 60.6016 17.0597C60.4936 17.0852 60.3601 17.098 60.201 17.098C59.9226 17.098 59.6541 17.0369 59.3956 16.9148C59.1399 16.7926 58.9297 16.6108 58.7649 16.3693C58.6001 16.1278 58.5178 15.8281 58.5178 15.4702V8.88636ZM67.0245 15.8068L66.9478 16.2628C66.8995 16.5696 66.8313 16.9077 66.7433 17.277C66.6552 17.6463 66.5643 17.9972 66.4705 18.3295C66.3768 18.6619 66.2958 18.929 66.2276 19.1307H65.6438C65.6808 18.9375 65.7276 18.6918 65.7844 18.3935C65.8441 18.0952 65.9052 17.7642 65.9677 17.4006C66.0302 17.0398 66.087 16.6676 66.1381 16.2841L66.1978 15.8068H67.0245ZM75.0753 17.1193C74.5185 17.1193 74.0227 17.0142 73.5881 16.804C73.1534 16.5937 72.8125 16.3068 72.5653 15.9432C72.3182 15.5767 72.1946 15.1634 72.1946 14.7031C72.1946 14.3423 72.2699 14.0057 72.4205 13.6932C72.571 13.3778 72.7784 13.1136 73.0426 12.9006C73.3068 12.6847 73.6037 12.544 73.9332 12.4787V12.4318C73.5043 12.3068 73.1591 12.0611 72.8977 11.6946C72.6364 11.3253 72.5071 10.9062 72.5099 10.4375C72.5071 10.0028 72.6179 9.61364 72.8423 9.26989C73.0668 8.92614 73.3722 8.65483 73.7585 8.45597C74.1477 8.25426 74.5866 8.15341 75.0753 8.15341C75.5611 8.15341 75.9972 8.25426 76.3835 8.45597C76.7699 8.65483 77.0753 8.92614 77.2997 9.26989C77.527 9.61364 77.642 10.0028 77.6449 10.4375C77.642 10.9034 77.5099 11.3224 77.2486 11.6946C76.9872 12.0639 76.6435 12.3097 76.2173 12.4318V12.4787C76.5469 12.5412 76.8423 12.6804 77.1037 12.8963C77.3651 13.1122 77.5724 13.3778 77.7259 13.6932C77.8793 14.0057 77.956 14.3423 77.956 14.7031C77.956 15.1634 77.831 15.5767 77.581 15.9432C77.3338 16.3068 76.9929 16.5937 76.5582 16.804C76.1264 17.0142 75.6321 17.1193 75.0753 17.1193ZM75.0753 16.4034C75.4901 16.4034 75.8537 16.3295 76.1662 16.1818C76.4815 16.0312 76.7273 15.8253 76.9034 15.5639C77.0824 15.3026 77.1719 15.0028 77.1719 14.6648C77.1719 14.3153 77.0795 14.0043 76.8949 13.7315C76.7102 13.456 76.4602 13.2386 76.1449 13.0795C75.8295 12.9176 75.473 12.8366 75.0753 12.8366C74.6776 12.8366 74.3196 12.9176 74.0014 13.0795C73.6861 13.2386 73.4361 13.456 73.2514 13.7315C73.0696 14.0043 72.9787 14.3153 72.9787 14.6648C72.9787 15.0028 73.0653 15.3026 73.2386 15.5639C73.4148 15.8253 73.6605 16.0312 73.9759 16.1818C74.294 16.3295 74.6605 16.4034 75.0753 16.4034ZM75.0753 12.1548C75.4162 12.1548 75.7216 12.0824 75.9915 11.9375C76.2614 11.7926 76.4744 11.5952 76.6307 11.3452C76.7898 11.0923 76.8707 10.8054 76.8736 10.4844C76.8707 10.1662 76.7912 9.88494 76.6349 9.64062C76.4787 9.39347 76.2656 9.2017 75.9957 9.06534C75.7287 8.92614 75.4219 8.85653 75.0753 8.85653C74.7287 8.85653 74.419 8.92614 74.1463 9.06534C73.8764 9.2017 73.6634 9.39347 73.5071 9.64062C73.3537 9.88494 73.2784 10.1662 73.2812 10.4844C73.2784 10.8054 73.3551 11.0923 73.5114 11.3452C73.6705 11.5952 73.8849 11.7926 74.1548 11.9375C74.4276 12.0824 74.7344 12.1548 75.0753 12.1548ZM84.3917 15.8068L84.315 16.2628C84.2667 16.5696 84.1985 16.9077 84.1104 17.277C84.0224 17.6463 83.9315 17.9972 83.8377 18.3295C83.744 18.6619 83.663 18.929 83.5948 19.1307H83.011C83.0479 18.9375 83.0948 18.6918 83.1516 18.3935C83.2113 18.0952 83.2724 17.7642 83.3349 17.4006C83.3974 17.0398 83.4542 16.6676 83.5053 16.2841L83.565 15.8068H84.3917ZM89.745 17V16.4162L92.5959 13.2116C92.968 12.7912 93.2678 12.4318 93.495 12.1335C93.7223 11.8352 93.8871 11.5597 93.9893 11.3068C94.0945 11.054 94.147 10.7912 94.147 10.5185C94.147 10.1861 94.0689 9.89631 93.9126 9.64915C93.7592 9.39915 93.5476 9.20455 93.2777 9.06534C93.0078 8.92614 92.7038 8.85653 92.3658 8.85653C92.0078 8.85653 91.6939 8.93324 91.424 9.08665C91.157 9.24006 90.9496 9.45028 90.8018 9.71733C90.6541 9.98437 90.5803 10.2912 90.5803 10.6378H89.8175C89.8175 10.1548 89.9283 9.72727 90.1499 9.35511C90.3743 8.98011 90.6797 8.68608 91.0661 8.47301C91.4553 8.25994 91.8956 8.15341 92.3871 8.15341C92.8729 8.15341 93.3047 8.25852 93.6825 8.46875C94.0604 8.67614 94.3572 8.95881 94.5732 9.31676C94.7891 9.67472 94.897 10.0753 94.897 10.5185C94.897 10.8395 94.8402 11.1506 94.7266 11.4517C94.6158 11.7528 94.424 12.0881 94.1513 12.4574C93.8786 12.8267 93.5007 13.2784 93.0178 13.8125L90.853 16.2287V16.2841H95.1697V17H89.745ZM99.7795 17.1193C99.1658 17.1193 98.6417 16.9432 98.207 16.5909C97.7752 16.2358 97.4428 15.723 97.2099 15.0526C96.9798 14.3821 96.8647 13.5767 96.8647 12.6364C96.8647 11.6989 96.9798 10.8963 97.2099 10.2287C97.4428 9.55824 97.7766 9.04545 98.2113 8.69034C98.6488 8.33239 99.1715 8.15341 99.7795 8.15341C100.387 8.15341 100.909 8.33239 101.343 8.69034C101.781 9.04545 102.115 9.55824 102.345 10.2287C102.578 10.8963 102.694 11.6989 102.694 12.6364C102.694 13.5767 102.578 14.3821 102.345 15.0526C102.115 15.723 101.782 16.2358 101.348 16.5909C100.916 16.9432 100.393 17.1193 99.7795 17.1193ZM99.7795 16.4034C100.453 16.4034 100.978 16.0753 101.356 15.419C101.734 14.7599 101.923 13.8324 101.923 12.6364C101.923 11.8409 101.836 11.1619 101.663 10.5994C101.493 10.0341 101.247 9.60227 100.926 9.30398C100.608 9.00568 100.225 8.85653 99.7795 8.85653C99.1119 8.85653 98.5877 9.18892 98.207 9.85369C97.8263 10.5156 97.636 11.4432 97.636 12.6364C97.636 13.4318 97.7212 14.1108 97.8917 14.6733C98.065 15.2358 98.3107 15.6648 98.6289 15.9602C98.9499 16.2557 99.3335 16.4034 99.7795 16.4034ZM104.429 17V16.4162L107.279 13.2116C107.652 12.7912 107.951 12.4318 108.179 12.1335C108.406 11.8352 108.571 11.5597 108.673 11.3068C108.778 11.054 108.831 10.7912 108.831 10.5185C108.831 10.1861 108.752 9.89631 108.596 9.64915C108.443 9.39915 108.231 9.20455 107.961 9.06534C107.691 8.92614 107.387 8.85653 107.049 8.85653C106.691 8.85653 106.377 8.93324 106.108 9.08665C105.841 9.24006 105.633 9.45028 105.485 9.71733C105.338 9.98437 105.264 10.2912 105.264 10.6378H104.501C104.501 10.1548 104.612 9.72727 104.833 9.35511C105.058 8.98011 105.363 8.68608 105.75 8.47301C106.139 8.25994 106.579 8.15341 107.071 8.15341C107.556 8.15341 107.988 8.25852 108.366 8.46875C108.744 8.67614 109.041 8.95881 109.257 9.31676C109.473 9.67472 109.581 10.0753 109.581 10.5185C109.581 10.8395 109.524 11.1506 109.41 11.4517C109.299 11.7528 109.108 12.0881 108.835 12.4574C108.562 12.8267 108.184 13.2784 107.701 13.8125L105.537 16.2287V16.2841H109.853V17H104.429ZM114.587 17.1193C114.05 17.1193 113.57 17.0227 113.146 16.8295C112.723 16.6335 112.388 16.3622 112.141 16.0156C111.893 15.669 111.763 15.2699 111.749 14.8182H112.554C112.568 15.1364 112.666 15.4148 112.848 15.6534C113.03 15.8892 113.271 16.0739 113.572 16.2074C113.874 16.3381 114.209 16.4034 114.578 16.4034C114.982 16.4034 115.337 16.3281 115.643 16.1776C115.953 16.027 116.195 15.821 116.368 15.5597C116.544 15.2955 116.632 14.9972 116.632 14.6648C116.632 14.3125 116.543 14.0014 116.364 13.7315C116.185 13.4616 115.928 13.2514 115.592 13.1009C115.26 12.9503 114.862 12.875 114.399 12.875H113.888V12.1591H114.399C114.777 12.1591 115.111 12.0909 115.401 11.9545C115.693 11.8153 115.923 11.6207 116.091 11.3707C116.259 11.1207 116.342 10.8267 116.342 10.4886C116.342 10.1676 116.27 9.88494 116.125 9.64062C115.98 9.39631 115.776 9.20455 115.511 9.06534C115.25 8.92614 114.945 8.85653 114.595 8.85653C114.257 8.85653 113.947 8.92187 113.666 9.05256C113.385 9.18324 113.158 9.3679 112.984 9.60653C112.814 9.84517 112.723 10.1278 112.712 10.4545H111.94C111.952 10 112.077 9.60085 112.315 9.2571C112.557 8.91051 112.876 8.64062 113.274 8.44744C113.675 8.25142 114.118 8.15341 114.604 8.15341C115.118 8.15341 115.562 8.25852 115.938 8.46875C116.312 8.67898 116.602 8.95881 116.807 9.30824C117.014 9.65483 117.118 10.0369 117.118 10.4545C117.118 10.9517 116.983 11.3778 116.713 11.733C116.443 12.0852 116.08 12.3295 115.622 12.4659V12.5213C116.179 12.6321 116.616 12.8793 116.935 13.2628C117.256 13.6435 117.416 14.1108 117.416 14.6648C117.416 15.1307 117.294 15.5497 117.05 15.9219C116.805 16.2912 116.47 16.5838 116.044 16.7997C115.621 17.0128 115.135 17.1193 114.587 17.1193Z" fill="#9E9E9E"/>
</svg>
