<svg width="180" height="20" viewBox="0 0 180 20" fill="none" xmlns="http://www.w3.org/2000/svg">
<path d="M108.001 18.9583C103.634 18.9583 100.084 15.4083 100.084 11.0417C100.084 6.675 103.634 3.125 108.001 3.125C112.367 3.125 115.917 6.675 115.917 11.0417C115.917 15.4083 112.367 18.9583 108.001 18.9583ZM108.001 4.375C104.326 4.375 101.334 7.36667 101.334 11.0417C101.334 14.7167 104.326 17.7083 108.001 17.7083C111.676 17.7083 114.667 14.7167 114.667 11.0417C114.667 7.36667 111.676 4.375 108.001 4.375Z" fill="#717171"/>
<path d="M108 11.4583C107.658 11.4583 107.375 11.175 107.375 10.8333V6.66667C107.375 6.325 107.658 6.04167 108 6.04167C108.342 6.04167 108.625 6.325 108.625 6.66667V10.8333C108.625 11.175 108.342 11.4583 108 11.4583Z" fill="#717171"/>
<path d="M110.5 2.29167H105.5C105.158 2.29167 104.875 2.00833 104.875 1.66667C104.875 1.325 105.158 1.04167 105.5 1.04167H110.5C110.842 1.04167 111.125 1.325 111.125 1.66667C111.125 2.00833 110.842 2.29167 110.5 2.29167Z" fill="#717171"/>
<path d="M124.391 17.1193C123.854 17.1193 123.374 17.0227 122.951 16.8295C122.528 16.6335 122.192 16.3622 121.945 16.0156C121.698 15.669 121.567 15.2699 121.553 14.8182H122.359C122.373 15.1364 122.471 15.4148 122.653 15.6534C122.835 15.8892 123.076 16.0739 123.377 16.2074C123.678 16.3381 124.013 16.4034 124.383 16.4034C124.786 16.4034 125.141 16.3281 125.448 16.1776C125.758 16.027 125.999 15.821 126.173 15.5597C126.349 15.2955 126.437 14.9972 126.437 14.6648C126.437 14.3125 126.347 14.0014 126.168 13.7315C125.989 13.4616 125.732 13.2514 125.397 13.1009C125.065 12.9503 124.667 12.875 124.204 12.875H123.692V12.1591H124.204C124.582 12.1591 124.915 12.0909 125.205 11.9545C125.498 11.8153 125.728 11.6207 125.896 11.3707C126.063 11.1207 126.147 10.8267 126.147 10.4886C126.147 10.1676 126.075 9.88494 125.93 9.64062C125.785 9.39631 125.58 9.20455 125.316 9.06534C125.055 8.92614 124.749 8.85653 124.4 8.85653C124.062 8.85653 123.752 8.92187 123.471 9.05256C123.19 9.18324 122.962 9.3679 122.789 9.60653C122.619 9.84517 122.528 10.1278 122.516 10.4545H121.745C121.756 10 121.881 9.60085 122.12 9.2571C122.362 8.91051 122.681 8.64062 123.079 8.44744C123.479 8.25142 123.923 8.15341 124.408 8.15341C124.923 8.15341 125.367 8.25852 125.742 8.46875C126.117 8.67898 126.407 8.95881 126.612 9.30824C126.819 9.65483 126.923 10.0369 126.923 10.4545C126.923 10.9517 126.788 11.3778 126.518 11.733C126.248 12.0852 125.884 12.3295 125.427 12.4659V12.5213C125.984 12.6321 126.421 12.8793 126.739 13.2628C127.06 13.6435 127.221 14.1108 127.221 14.6648C127.221 15.1307 127.099 15.5497 126.854 15.9219C126.61 16.2912 126.275 16.5838 125.849 16.7997C125.425 17.0128 124.94 17.1193 124.391 17.1193ZM132.509 17V10.4545H133.246V11.4602H133.315C133.445 11.1222 133.663 10.8565 133.967 10.6634C134.273 10.4673 134.641 10.3693 135.07 10.3693C135.522 10.3693 135.893 10.4759 136.183 10.6889C136.475 10.8991 136.694 11.1889 136.839 11.5582H136.894C137.042 11.1946 137.282 10.9062 137.614 10.6932C137.95 10.4773 138.356 10.3693 138.833 10.3693C139.441 10.3693 139.921 10.5611 140.273 10.9446C140.626 11.3253 140.802 11.8821 140.802 12.6151V17H140.043V12.6151C140.043 12.098 139.911 11.7102 139.647 11.4517C139.383 11.1932 139.035 11.0639 138.603 11.0639C138.103 11.0639 137.718 11.2173 137.448 11.5241C137.178 11.831 137.043 12.2202 137.043 12.6918V17H136.268V12.5469C136.268 12.1037 136.144 11.7457 135.897 11.473C135.65 11.2003 135.302 11.0639 134.853 11.0639C134.552 11.0639 134.281 11.1378 134.039 11.2855C133.8 11.4332 133.612 11.6392 133.472 11.9034C133.336 12.1648 133.268 12.4659 133.268 12.8068V17H132.509ZM142.819 17V10.4545H143.581V17H142.819ZM143.206 9.32955C143.05 9.32955 142.917 9.27699 142.806 9.17188C142.695 9.06392 142.64 8.93466 142.64 8.78409C142.64 8.63352 142.695 8.50568 142.806 8.40057C142.917 8.29261 143.05 8.23864 143.206 8.23864C143.363 8.23864 143.496 8.29261 143.607 8.40057C143.718 8.50568 143.773 8.63352 143.773 8.78409C143.773 8.93466 143.718 9.06392 143.607 9.17188C143.496 9.27699 143.363 9.32955 143.206 9.32955ZM146.346 12.9091V17H145.587V10.4545H146.325V11.4815H146.393C146.546 11.1463 146.785 10.8778 147.109 10.6761C147.435 10.4716 147.839 10.3693 148.319 10.3693C148.759 10.3693 149.146 10.4616 149.478 10.6463C149.813 10.8281 150.073 11.0966 150.258 11.4517C150.445 11.8068 150.539 12.2429 150.539 12.7599V17H149.781V12.8068C149.781 12.2699 149.63 11.8452 149.329 11.5327C149.031 11.2202 148.63 11.0639 148.127 11.0639C147.783 11.0639 147.478 11.1378 147.211 11.2855C146.944 11.4332 146.732 11.6463 146.576 11.9247C146.423 12.2003 146.346 12.5284 146.346 12.9091ZM155.912 17V10.4545H156.649V11.4602H156.704C156.835 11.1307 157.062 10.8651 157.386 10.6634C157.713 10.4588 158.082 10.3565 158.494 10.3565C158.556 10.3565 158.626 10.358 158.703 10.3608C158.779 10.3636 158.843 10.3665 158.895 10.3693V11.1406C158.86 11.1349 158.801 11.1264 158.716 11.1151C158.63 11.1037 158.538 11.098 158.439 11.098C158.098 11.098 157.794 11.1705 157.527 11.3153C157.262 11.4574 157.054 11.6548 156.9 11.9077C156.747 12.1605 156.67 12.4489 156.67 12.7727V17H155.912ZM162.636 17.1364C162.025 17.1364 161.497 16.9943 161.051 16.7102C160.605 16.4233 160.26 16.027 160.015 15.5213C159.774 15.0128 159.653 14.4276 159.653 13.7656C159.653 13.1065 159.774 12.5213 160.015 12.0099C160.26 11.4957 160.596 11.0937 161.025 10.804C161.457 10.5114 161.956 10.3651 162.521 10.3651C162.876 10.3651 163.218 10.4304 163.548 10.5611C163.877 10.6889 164.173 10.8864 164.434 11.1534C164.699 11.4176 164.907 11.7514 165.061 12.1548C165.214 12.5554 165.291 13.0298 165.291 13.5781V13.9531H160.177V13.2841H164.515C164.515 12.8636 164.43 12.4858 164.26 12.1506C164.092 11.8125 163.858 11.5455 163.556 11.3494C163.258 11.1534 162.913 11.0554 162.521 11.0554C162.106 11.0554 161.741 11.1662 161.426 11.3878C161.11 11.6094 160.863 11.902 160.684 12.2656C160.508 12.6293 160.419 13.027 160.416 13.4588V13.8594C160.416 14.3793 160.505 14.8338 160.684 15.223C160.866 15.6094 161.123 15.9091 161.456 16.1222C161.788 16.3352 162.181 16.4418 162.636 16.4418C162.946 16.4418 163.217 16.3935 163.45 16.2969C163.686 16.2003 163.883 16.071 164.042 15.9091C164.204 15.7443 164.326 15.5639 164.409 15.3679L165.129 15.6023C165.029 15.8778 164.866 16.1321 164.639 16.3651C164.414 16.598 164.133 16.7855 163.795 16.9276C163.46 17.0668 163.074 17.1364 162.636 17.1364ZM168.79 17.1491C168.396 17.1491 168.035 17.0724 167.708 16.919C167.381 16.7628 167.121 16.5384 166.928 16.2457C166.735 15.9503 166.638 15.5923 166.638 15.1719C166.638 14.848 166.7 14.5753 166.822 14.3537C166.944 14.1321 167.117 13.9503 167.342 13.8082C167.566 13.6662 167.832 13.554 168.138 13.4716C168.445 13.3892 168.783 13.3253 169.153 13.2798C169.519 13.2344 169.829 13.1946 170.082 13.1605C170.337 13.1264 170.532 13.0724 170.665 12.9986C170.799 12.9247 170.866 12.8054 170.866 12.6406V12.4872C170.866 12.0412 170.732 11.6903 170.465 11.4347C170.201 11.1761 169.82 11.0469 169.323 11.0469C168.852 11.0469 168.467 11.1506 168.168 11.358C167.873 11.5653 167.665 11.8097 167.546 12.0909L166.826 11.831C166.974 11.473 167.178 11.1875 167.44 10.9744C167.701 10.7585 167.994 10.6037 168.317 10.5099C168.641 10.4134 168.969 10.3651 169.302 10.3651C169.552 10.3651 169.812 10.3977 170.082 10.4631C170.354 10.5284 170.607 10.642 170.84 10.804C171.073 10.9631 171.262 11.1861 171.407 11.473C171.552 11.7571 171.624 12.1179 171.624 12.5554V17H170.866V15.9645H170.819C170.728 16.1577 170.593 16.3452 170.414 16.527C170.235 16.7088 170.011 16.858 169.741 16.9744C169.471 17.0909 169.154 17.1491 168.79 17.1491ZM168.893 16.4545C169.296 16.4545 169.646 16.3651 169.941 16.1861C170.237 16.0071 170.464 15.7699 170.623 15.4744C170.785 15.1761 170.866 14.848 170.866 14.4901V13.544C170.809 13.598 170.714 13.6463 170.58 13.6889C170.45 13.7315 170.298 13.7699 170.124 13.804C169.954 13.8352 169.783 13.8622 169.613 13.8849C169.442 13.9077 169.289 13.9276 169.153 13.9446C168.783 13.9901 168.468 14.0611 168.207 14.1577C167.945 14.2543 167.745 14.3878 167.606 14.5582C167.467 14.7259 167.397 14.9418 167.397 15.206C167.397 15.6037 167.539 15.9119 167.823 16.1307C168.107 16.3466 168.464 16.4545 168.893 16.4545ZM175.999 17.1364C175.462 17.1364 174.991 16.9943 174.588 16.7102C174.185 16.4261 173.869 16.0298 173.642 15.5213C173.418 15.0128 173.305 14.4205 173.305 13.7443C173.305 13.071 173.418 12.4815 173.642 11.9759C173.869 11.4673 174.186 11.0724 174.592 10.7912C174.999 10.5071 175.472 10.3651 176.011 10.3651C176.409 10.3651 176.74 10.4361 177.004 10.5781C177.268 10.7173 177.48 10.8906 177.639 11.098C177.798 11.3054 177.922 11.5071 178.01 11.7031H178.078V8.27273H178.841V17H178.099V15.7855H178.01C177.922 15.9844 177.797 16.1889 177.635 16.3991C177.473 16.6065 177.259 16.7812 176.991 16.9233C176.727 17.0653 176.396 17.1364 175.999 17.1364ZM176.088 16.4418C176.511 16.4418 176.872 16.3267 177.17 16.0966C177.469 15.8636 177.696 15.544 177.852 15.1378C178.011 14.7287 178.091 14.2599 178.091 13.7315C178.091 13.2088 178.013 12.7472 177.857 12.3466C177.7 11.9432 177.473 11.6278 177.175 11.4006C176.876 11.1705 176.514 11.0554 176.088 11.0554C175.651 11.0554 175.281 11.1747 174.98 11.4134C174.682 11.6491 174.455 11.9687 174.298 12.3722C174.145 12.7756 174.068 13.2287 174.068 13.7315C174.068 14.2401 174.146 14.6989 174.303 15.108C174.459 15.517 174.686 15.8423 174.984 16.0838C175.286 16.3224 175.653 16.4418 176.088 16.4418Z" fill="#717171"/>
</svg>
