<svg width="82" height="24" viewBox="0 0 82 24" fill="none" xmlns="http://www.w3.org/2000/svg">
<path d="M1.26705 7.875V6.36364H10.2727V7.875H6.64205V18H4.89205V7.875H1.26705ZM14.6222 18.1761C13.7623 18.1761 13.0218 17.9924 12.4006 17.625C11.7831 17.2538 11.3059 16.733 10.9688 16.0625C10.6354 15.3883 10.4688 14.5985 10.4688 13.6932C10.4688 12.7992 10.6354 12.0114 10.9688 11.3295C11.3059 10.6477 11.7756 10.1155 12.3778 9.73295C12.9839 9.35038 13.6922 9.15909 14.5028 9.15909C14.9953 9.15909 15.4725 9.24053 15.9347 9.40341C16.3968 9.56629 16.8116 9.82197 17.179 10.1705C17.5464 10.5189 17.8362 10.9716 18.0483 11.5284C18.2604 12.0814 18.3665 12.7538 18.3665 13.5455V14.1477H11.429V12.875H16.7017C16.7017 12.428 16.6108 12.0322 16.429 11.6875C16.2472 11.339 15.9915 11.0644 15.6619 10.8636C15.3362 10.6629 14.9536 10.5625 14.5142 10.5625C14.0369 10.5625 13.6203 10.6799 13.2642 10.9148C12.9119 11.1458 12.6392 11.4489 12.446 11.8239C12.2566 12.1951 12.1619 12.5985 12.1619 13.0341V14.0284C12.1619 14.6117 12.2642 15.108 12.4688 15.517C12.6771 15.9261 12.9669 16.2386 13.3381 16.4545C13.7093 16.6667 14.143 16.7727 14.6392 16.7727C14.9612 16.7727 15.2547 16.7273 15.5199 16.6364C15.785 16.5417 16.0142 16.4015 16.2074 16.2159C16.4006 16.0303 16.5483 15.8011 16.6506 15.5284L18.2585 15.8182C18.1297 16.2917 17.8987 16.7064 17.5653 17.0625C17.2358 17.4148 16.821 17.6894 16.321 17.8864C15.8248 18.0795 15.2585 18.1761 14.6222 18.1761ZM23.9276 18.1761C23.0829 18.1761 22.3556 17.9848 21.7457 17.6023C21.1397 17.2159 20.6738 16.6837 20.348 16.0057C20.0223 15.3277 19.8594 14.5511 19.8594 13.6761C19.8594 12.7898 20.026 12.0076 20.3594 11.3295C20.6927 10.6477 21.1624 10.1155 21.7685 9.73295C22.3745 9.35038 23.0885 9.15909 23.9105 9.15909C24.5734 9.15909 25.1643 9.2822 25.6832 9.52841C26.2022 9.77083 26.6207 10.1117 26.9389 10.5511C27.2609 10.9905 27.4522 11.5038 27.5128 12.0909H25.8594C25.7685 11.6818 25.5601 11.3295 25.2344 11.0341C24.9124 10.7386 24.4806 10.5909 23.9389 10.5909C23.4654 10.5909 23.0507 10.7159 22.6946 10.9659C22.3423 11.2121 22.0677 11.5644 21.8707 12.0227C21.6738 12.4773 21.5753 13.0152 21.5753 13.6364C21.5753 14.2727 21.6719 14.822 21.8651 15.2841C22.0582 15.7462 22.331 16.1042 22.6832 16.358C23.0393 16.6117 23.4579 16.7386 23.9389 16.7386C24.2609 16.7386 24.5526 16.6799 24.8139 16.5625C25.0791 16.4413 25.3007 16.2689 25.4787 16.0455C25.6605 15.822 25.7874 15.553 25.8594 15.2386H27.5128C27.4522 15.803 27.2685 16.3068 26.9616 16.75C26.6548 17.1932 26.2438 17.5417 25.7287 17.7955C25.2173 18.0492 24.617 18.1761 23.9276 18.1761ZM31.0284 12.8182V18H29.3295V6.36364H31.0057V10.6932H31.1136C31.3182 10.2235 31.6307 9.85038 32.0511 9.57386C32.4716 9.29735 33.0208 9.15909 33.6989 9.15909C34.2973 9.15909 34.8201 9.2822 35.267 9.52841C35.7178 9.77462 36.0663 10.142 36.3125 10.6307C36.5625 11.1155 36.6875 11.7216 36.6875 12.4489V18H34.9886V12.6534C34.9886 12.0133 34.8239 11.517 34.4943 11.1648C34.1648 10.8087 33.7064 10.6307 33.1193 10.6307C32.7178 10.6307 32.358 10.7159 32.0398 10.8864C31.7254 11.0568 31.4773 11.3068 31.2955 11.6364C31.1174 11.9621 31.0284 12.3561 31.0284 12.8182ZM43.3253 18V6.36364H45.081V11.4205H50.8821V6.36364H52.6435V18H50.8821V12.9261H45.081V18H43.3253ZM58.8253 18.1761C57.9654 18.1761 57.2249 17.9924 56.6037 17.625C55.9863 17.2538 55.509 16.733 55.1719 16.0625C54.8385 15.3883 54.6719 14.5985 54.6719 13.6932C54.6719 12.7992 54.8385 12.0114 55.1719 11.3295C55.509 10.6477 55.9787 10.1155 56.581 9.73295C57.187 9.35038 57.8954 9.15909 58.706 9.15909C59.1984 9.15909 59.6757 9.24053 60.1378 9.40341C60.5999 9.56629 61.0147 9.82197 61.3821 10.1705C61.7495 10.5189 62.0393 10.9716 62.2514 11.5284C62.4635 12.0814 62.5696 12.7538 62.5696 13.5455V14.1477H55.6321V12.875H60.9048C60.9048 12.428 60.8139 12.0322 60.6321 11.6875C60.4503 11.339 60.1946 11.0644 59.8651 10.8636C59.5393 10.6629 59.1567 10.5625 58.7173 10.5625C58.2401 10.5625 57.8234 10.6799 57.4673 10.9148C57.1151 11.1458 56.8423 11.4489 56.6491 11.8239C56.4598 12.1951 56.3651 12.5985 56.3651 13.0341V14.0284C56.3651 14.6117 56.4673 15.108 56.6719 15.517C56.8802 15.9261 57.17 16.2386 57.5412 16.4545C57.9124 16.6667 58.3461 16.7727 58.8423 16.7727C59.1643 16.7727 59.4579 16.7273 59.723 16.6364C59.9882 16.5417 60.2173 16.4015 60.4105 16.2159C60.6037 16.0303 60.7514 15.8011 60.8537 15.5284L62.4616 15.8182C62.3329 16.2917 62.1018 16.7064 61.7685 17.0625C61.4389 17.4148 61.0241 17.6894 60.5241 17.8864C60.0279 18.0795 59.4616 18.1761 58.8253 18.1761ZM64.4545 18V9.27273H66.1534V18H64.4545ZM65.3125 7.92614C65.017 7.92614 64.7633 7.82765 64.5511 7.63068C64.3428 7.42992 64.2386 7.19129 64.2386 6.91477C64.2386 6.63447 64.3428 6.39583 64.5511 6.19886C64.7633 5.99811 65.017 5.89773 65.3125 5.89773C65.608 5.89773 65.8598 5.99811 66.0682 6.19886C66.2803 6.39583 66.3864 6.63447 66.3864 6.91477C66.3864 7.19129 66.2803 7.42992 66.0682 7.63068C65.8598 7.82765 65.608 7.92614 65.3125 7.92614ZM68.4389 18V9.27273H70.0696V10.6932H70.1776C70.3594 10.2121 70.6567 9.83712 71.0696 9.56818C71.4825 9.29545 71.9768 9.15909 72.5526 9.15909C73.1359 9.15909 73.6245 9.29545 74.0185 9.56818C74.4162 9.84091 74.7098 10.2159 74.8991 10.6932H74.9901C75.1984 10.2273 75.5298 9.85606 75.9844 9.57955C76.4389 9.29924 76.9806 9.15909 77.6094 9.15909C78.401 9.15909 79.0469 9.4072 79.5469 9.90341C80.0507 10.3996 80.3026 11.1477 80.3026 12.1477V18H78.6037V12.3068C78.6037 11.7159 78.4427 11.2879 78.1207 11.0227C77.7988 10.7576 77.4143 10.625 76.9673 10.625C76.4143 10.625 75.9844 10.7955 75.6776 11.1364C75.3707 11.4735 75.2173 11.9072 75.2173 12.4375V18H73.5241V12.1989C73.5241 11.7254 73.3764 11.3447 73.081 11.0568C72.7855 10.7689 72.401 10.625 71.9276 10.625C71.6056 10.625 71.3082 10.7102 71.0355 10.8807C70.7666 11.0473 70.5488 11.2803 70.3821 11.5795C70.2192 11.8788 70.1378 12.2254 70.1378 12.6193V18H68.4389Z" fill="#0951BE"/>
</svg>
