<svg width="16" height="16" viewBox="0 0 16 16" fill="none" xmlns="http://www.w3.org/2000/svg">
  <path d="M7.1937 10.1134C7.06036 10.1134 6.9337 10.06 6.84036 9.96669L5.22703 8.35335C5.0337 8.16002 5.0337 7.84002 5.22703 7.64669C5.42036 7.45335 5.74036 7.45335 5.9337 7.64669L7.1937 8.90669L10.0604 6.04002C10.2537 5.84669 10.5737 5.84669 10.767 6.04002C10.9604 6.23335 10.9604 6.55335 10.767 6.74669L7.54703 9.96669C7.4537 10.06 7.32703 10.1134 7.1937 10.1134Z" fill="#0C68F4" />
  <path d="M8.00025 15.1666C7.58025 15.1666 7.16025 15.0266 6.83358 14.7466L5.78025 13.8399C5.67358 13.7466 5.40691 13.6533 5.26691 13.6533H4.12025C3.13358 13.6533 2.33358 12.8533 2.33358 11.8666V10.7266C2.33358 10.5866 2.24025 10.3266 2.14691 10.2199L1.24691 9.15992C0.700247 8.51325 0.700247 7.49325 1.24691 6.84659L2.14691 5.78659C2.24025 5.67992 2.33358 5.41992 2.33358 5.27992V4.13325C2.33358 3.14659 3.13358 2.34659 4.12025 2.34659H5.27358C5.41358 2.34659 5.68025 2.24659 5.78691 2.15992L6.84025 1.25325C7.49358 0.693252 8.51358 0.693252 9.16691 1.25325L10.2202 2.15992C10.3269 2.25325 10.5936 2.34659 10.7336 2.34659H11.8669C12.8536 2.34659 13.6536 3.14659 13.6536 4.13325V5.26659C13.6536 5.40659 13.7536 5.67325 13.8469 5.77992L14.7536 6.83325C15.3136 7.48659 15.3136 8.50659 14.7536 9.15992L13.8469 10.2133C13.7536 10.3199 13.6536 10.5866 13.6536 10.7266V11.8599C13.6536 12.8466 12.8536 13.6466 11.8669 13.6466H10.7336C10.5936 13.6466 10.3269 13.7466 10.2202 13.8333L9.16691 14.7399C8.84025 15.0266 8.42025 15.1666 8.00025 15.1666ZM4.12025 3.34659C3.68691 3.34659 3.33358 3.69992 3.33358 4.13325V5.27325C3.33358 5.65325 3.15358 6.13992 2.90691 6.42659L2.00691 7.48659C1.77358 7.75992 1.77358 8.23325 2.00691 8.50659L2.90691 9.56659C3.15358 9.85992 3.33358 10.3399 3.33358 10.7199V11.8599C3.33358 12.2933 3.68691 12.6466 4.12025 12.6466H5.27358C5.66025 12.6466 6.14691 12.8266 6.44025 13.0799L7.49358 13.9866C7.76691 14.2199 8.24691 14.2199 8.52025 13.9866L9.57358 13.0799C9.86691 12.8333 10.3536 12.6466 10.7402 12.6466H11.8736C12.3069 12.6466 12.6602 12.2933 12.6602 11.8599V10.7266C12.6602 10.3399 12.8402 9.85325 13.0936 9.55992L14.0002 8.50659C14.2336 8.23325 14.2336 7.75325 14.0002 7.47992L13.0936 6.42659C12.8402 6.13325 12.6602 5.64659 12.6602 5.25992V4.13325C12.6602 3.69992 12.3069 3.34659 11.8736 3.34659H10.7402C10.3536 3.34659 9.86691 3.16659 9.57358 2.91325L8.52025 2.00659C8.24691 1.77325 7.76691 1.77325 7.49358 2.00659L6.44025 2.91992C6.14691 3.16659 5.65358 3.34659 5.27358 3.34659H4.12025Z" fill="#0C68F4" />
</svg>